PathFileType	4	(X/Y/Z)	RBDS08\RBDS08runT35.trc
DataRate	CameraRate	NumFrames	NumMarkers	Units	OrigDataRate	OrigDataStartFrame	OrigNumFrames
150.000000	150.000000	4	33	mm	150.000000	562	4500
Frame#	Time	L.ASIS			L.Heel.Bottom			L.Heel.Lateral			L.Heel.Top			L.Iliac.Crest			L.MT1			L.MT5			L.PSIS			L.Shank.Bottom.Lateral			L.Shank.Bottom.Medial			L.Shank.Top.Lateral			L.Shank.Top.Medial			L.Thigh.Bottom.Lateral			L.Thigh.Bottom.Medial			L.Thigh.Top.Lateral			L.Thigh.Top.Medial			R.ASIS			R.ASY			R.Heel.Bottom			R.Heel.Lateral			R.Heel.Top			R.Iliac.Crest			R.MT1			R.MT5			R.PSIS			R.Shank.Bottom.Lateral			R.Shank.Bottom.Medial			R.Shank.Top.Lateral			R.Shank.Top.Medial			R.Thigh.Bottom.Lateral			R.Thigh.Bottom.Medial			R.Thigh.Top.Lateral			R.Thigh.Top.Medial			
		X1	Y1	Z1	X2	Y2	Z2	X3	Y3	Z3	X4	Y4	Z4	X5	Y5	Z5	X6	Y6	Z6	X7	Y7	Z7	X8	Y8	Z8	X9	Y9	Z9	X10	Y10	Z10	X11	Y11	Z11	X12	Y12	Z12	X13	Y13	Z13	X14	Y14	Z14	X15	Y15	Z15	X16	Y16	Z16	X17	Y17	Z17	X18	Y18	Z18	X19	Y19	Z19	X20	Y20	Z20	X21	Y21	Z21	X22	Y22	Z22	X23	Y23	Z23	X24	Y24	Z24	X25	Y25	Z25	X26	Y26	Z26	X27	Y27	Z27	X28	Y28	Z28	X29	Y29	Z29	X30	Y30	Z30	X31	Y31	Z31	X32	Y32	Z32	X33	Y33	Z33	

563	3.746666666666667	2001.226488227109	1009.723882027152	912.8046372160161	1320.999419673067	285.4888197872066	1023.110676506302	1337.434853096549	260.8474186433659	974.4964039057663	1370.189786846025	295.432416704565	1012.598410407691	1972.208789727922	1094.86564377786	891.9767394200916	1441.147244178805	91.27970398246123	1044.500901899778	1382.071778833275	109.5907748129201	952.3271837938585	1843.10146456423	1070.450645284383	982.5621797656125	1439.073753206745	304.3064922397844	947.317877888747	1417.524971867189	325.870025762616	989.1312267299102	1480.101292579212	372.062343137042	929.1675042641976	1462.694658131843	396.0120057061015	974.1710385585905	1747.013201096535	687.6832279223953	871.362795968192	1695.76486063752	712.6901282594	917.5953319750105	1783.152037593638	791.7687657126269	859.766909873616	1740.540536957859	813.3599525435135	910.6969364479376	2010.955276559355	1026.492036618069	1131.715178323473	-14106934.17276331	3437548.160584352	-7387006.844614436	1955.424531692973	184.9424190386095	1060.565537485486	1976.768191119598	201.821220817626	1105.054718096691	1974.682856480905	231.2778164515745	1056.50277653655	1959.353413370825	1101.58222000452	1176.544817991328	2184.3063894823	163.1351103411751	1066.091306516844	2131.34049424908	173.321407013135	1161.377490018447	1847.463604892255	1074.550967662885	1085.346868129269	2047.626450685025	333.108597891768	1113.807249617677	2030.797181663788	341.5046040851619	1062.230221931469	2065.843049369796	412.5438854296262	1117.641658126657	2052.995466347762	418.617420531711	1065.711362818388	2160.591589621859	716.3338011547401	1162.744228976637	2111.344145784091	671.5102639607031	1131.741060956063	2079.195106086269	787.0203458279685	1188.069329458692	2033.075721653021	744.013196911023	1160.792579145443	
564	3.753333333333333	2002.832532791765	1011.691088555152	913.3133495902399	1314.918525559037	300.3469432221634	1025.365082719626	1329.394949259051	275.2926491413442	976.1083390516893	1364.463580596153	308.3547373856618	1013.851716227377	1973.692081436066	1096.502553617373	892.2487920337206	1428.258779771445	100.8806095291292	1042.324462315261	1368.010240327267	121.6526855667216	951.6163929609452	1844.329236342037	1072.214991300209	982.8265817250508	1432.387102160553	314.436683323471	947.630543242552	1411.797057466259	336.4150354907112	989.7284521519734	1475.364344789675	380.9602124661362	929.7324855854731	1458.943742211728	405.1711290320193	974.9461009219493	1748.185171609156	690.0987622575276	872.4602529660633	1697.20574334967	715.3594640086586	918.9281422031271	1784.533578440599	794.0431692350841	860.4647991004996	1742.273195475366	815.8719124150117	911.6260996374366	2010.823695274938	1027.697545877964	1132.403138013443	-14275256.99183799	3478648.541693913	-7475049.003715074	1979.295327494228	166.923536373296	1058.34084119156	1999.400356729882	184.9123582618133	1103.029250876733	1995.539975166911	214.3618191612698	1054.620955300143	1959.385176554315	1102.995306875796	1177.468422751417	2209.09839014548	159.662692802032	1064.334891379012	2155.41291925977	166.0841520349259	1159.647257591453	1848.66049078801	1075.817863898214	1085.65137632863	2062.430504966896	320.5598580664089	1112.836932851662	2045.222717985168	328.4530238417005	1061.290698645706	2076.206275979735	400.8137198611051	1117.399922532258	2063.174090309779	406.5643243694147	1065.483266892167	2159.084891323901	713.7047213227024	1163.305167143498	2109.162607226229	669.3864609708377	1132.614511270012	2078.671777499906	785.6130474131056	1188.443579461361	2031.968363817044	743.180364001462	1161.292985097878	
565	3.76	2004.096406838876	1013.572110276366	913.5304981588901	1308.492008866211	315.0260144127172	1026.908533873722	1321.657059591904	289.8916183066091	977.1861643755376	1358.312822338648	321.403373473213	1014.97111068704	1974.762681791277	1098.040415172697	892.499078326333	1415.754620789944	111.3750514366429	1040.415089227624	1355.334814260169	134.7211652422996	950.5904885022005	1845.229946195746	1073.622637398755	983.2483173492321	1426.274467476785	324.7782468991997	948.0713793256048	1406.519952966619	347.47211470212	990.1626095616289	1471.547433297685	389.7121915427741	930.3516268664583	1456.034966871222	414.4557119489032	975.5191830275228	1750.39141700331	691.3124641876385	873.6631118669492	1699.57731890218	716.6500241704407	920.3331699139326	1786.527198025786	795.2474207328033	861.161547223084	1744.36593706417	817.2134812158658	912.3969775565474	2010.556683872531	1028.545435642601	1132.815316583847	-14444913.14214435	3520075.270507832	-7563787.829167716	2002.526193602412	149.8068076978005	1056.498906716259	2021.571418888813	168.7042497691803	1101.331319530592	2015.689486273762	198.1348434306695	1053.225933474984	1959.316108445819	1103.682996866068	1178.455512516521	2232.157868733525	156.9518034901045	1061.81929348689	2178.579800151606	159.4118222676375	1157.413747632711	1849.691129025909	1076.557915573837	1086.103812542797	2076.736425540357	308.2428916283372	1112.222589108399	2058.871289392187	315.7372009459645	1060.861649931423	2086.181935916493	389.0178979013785	1117.678487566902	2072.634218905998	394.5607613916054	1065.91607666816	2156.808014516114	709.8808898928609	1164.138470675543	2106.262065764243	666.3825240380668	1133.312469696374	2077.485533561191	783.1282966642535	1189.012210710133	2030.23791779812	741.5078553110535	1161.585987903601	
566	3.766666666666667	2005.071519323899	1015.302161680458	913.4733853224342	1301.884085701664	329.6553716312245	1027.658039212684	1314.397754045956	304.6602242406308	977.6612021067847	1351.940615552402	334.648149379655	1015.889712200685	1975.438331956618	1099.492925891382	892.7203322948772	1403.649554910884	122.6921034731918	1038.851247629305	1344.096332399222	148.6369821491516	949.2858115049748	1845.855343960388	1074.650311037476	983.7647075231396	1420.846870669591	335.3133884382187	948.60064053214	1401.828302672683	358.9886793745267	990.4317557021185	1468.699692749905	398.3114610689195	931.0060066247307	1454.026223423662	423.832442394633	975.9020181800041	1753.627451394412	691.2727285957567	874.9153466761481	1702.851289775109	716.5194757638233	921.7169079517613	1789.162883609499	795.3209160765377	861.8241797258413	1746.820475392537	817.3329833369692	912.9425500760083	2010.221908142367	1029.089558313037	1132.948424385951	-14615907.88304371	3561829.637549079	-7653226.066357514	2024.844289059475	133.5885861143018	1055.105342228496	2043.056671125469	153.2251615008391	1100.014010141408	2034.884108670993	182.6077460182976	1052.386185300575	1959.172943152219	1103.695673643694	1179.422620204499	2253.27998838964	154.9339343791546	1058.51608590652	2200.686513187046	153.3083015717724	1154.637940920303	1850.579876474331	1076.792105737084	1086.638817182456	2090.398922358097	296.2328024611189	1111.992758965135	2071.557490902489	303.3847007879835	1060.986277974334	2095.654431826141	377.2543586556582	1118.483464731723	2081.224088153989	382.6589635485015	1067.026915063254	2153.724770740254	704.9784716371673	1165.193066059614	2102.626131469674	662.6050499161313	1133.788551632148	2075.598850070325	779.6531372562016	1189.736197325228	2027.854491192684	739.0716724761908	1161.63891371981	
